<!DOCTYPE svg PUBLIC "-//W3C//DTD SVG 1.1//EN" "http://www.w3.org/Graphics/SVG/1.1/DTD/svg11.dtd">
<!-- Uploaded to: SVG Repo, www.svgrepo.com, Transformed by: SVG Repo Mixer Tools -->
<svg fill="#000000" height="64px" width="64px" version="1.1" id="Layer_1" xmlns="http://www.w3.org/2000/svg" xmlns:xlink="http://www.w3.org/1999/xlink" viewBox="0 0 511.995 511.995" xml:space="preserve">
<g id="SVGRepo_bgCarrier" stroke-width="0"/>
<g id="SVGRepo_tracerCarrier" stroke-linecap="round" stroke-linejoin="round"/>
<g id="SVGRepo_iconCarrier"> <g> <g> <g> <path d="M89.353,240.33c-4.456,0-8.067,3.611-8.067,8.067v1.218c0,4.456,3.611,8.067,8.067,8.067 c4.455,0,8.067-3.611,8.067-8.067v-1.218C97.42,243.942,93.809,240.33,89.353,240.33z"/> <path d="M128.534,240.33c-4.456,0-8.067,3.611-8.067,8.067v1.218c0,4.456,3.611,8.067,8.067,8.067s8.067-3.611,8.067-8.067 v-1.218C136.601,243.942,132.99,240.33,128.534,240.33z"/> <path d="M167.714,240.33c-4.456,0-8.067,3.611-8.067,8.067v1.218c0,4.456,3.611,8.067,8.067,8.067 c4.456,0,8.067-3.611,8.067-8.067v-1.218C175.78,243.942,172.169,240.33,167.714,240.33z"/> <path d="M206.894,240.33c-4.456,0-8.067,3.611-8.067,8.067v1.218c0,4.456,3.611,8.067,8.067,8.067 c4.456,0,8.067-3.611,8.067-8.067v-1.218C214.961,243.942,211.35,240.33,206.894,240.33z"/> <path d="M108.944,270.17c-4.456,0-8.067,3.611-8.067,8.067v1.216c0,4.456,3.611,8.067,8.067,8.067 c4.456,0,8.067-3.611,8.067-8.067v-1.216C117.01,273.781,113.4,270.17,108.944,270.17z"/> <path d="M148.123,270.17c-4.456,0-8.067,3.611-8.067,8.067v1.216c0,4.456,3.611,8.067,8.067,8.067 c4.456,0,8.067-3.611,8.067-8.067v-1.216C156.19,273.781,152.579,270.17,148.123,270.17z"/> <path d="M187.304,270.17c-4.456,0-8.067,3.611-8.067,8.067v1.216c0,4.456,3.611,8.067,8.067,8.067 c4.456,0,8.067-3.611,8.067-8.067v-1.216C195.371,273.781,191.759,270.17,187.304,270.17z"/> <path d="M509.8,192.15c-1.524-1.616-3.646-2.532-5.867-2.532h-4.577V70.005c0-4.456-3.611-8.067-8.067-8.067h-35.999V34.929 c0-4.456-3.611-8.067-8.067-8.067H403.16c-4.455,0-8.067,3.611-8.067,8.067v27.009h-27.587V34.929 c0-4.456-3.611-8.067-8.067-8.067h-44.066c-4.456,0-8.067,3.611-8.067,8.067v27.009h-35.999c-4.456,0-8.067,3.611-8.067,8.067 v119.613h-3.561c-2.22,0-4.343,0.916-5.867,2.532c-1.524,1.615-2.315,3.787-2.186,6.005l1.977,33.911 c-5.958-3.716-12.574-7.062-19.835-10.006c-32.372-13.121-68.14-15.08-86.579-15.08c-18.527,0-54.519,1.936-87.414,14.898 C26.781,234.88,6.724,255.738,1.772,282.197c-0.029,0.157-0.054,0.312-0.073,0.469c-0.581,4.585-2.977,28.026,6.973,39.318 c3.594,4.078,8.371,6.233,13.818,6.233h236.722l0.444,7.626H11.03c-4.456,0-8.067,3.611-8.067,8.067 c0,4.456,3.611,8.067,8.067,8.067h249.568l0.557,9.563H19.081c-4.456,0-8.067,3.611-8.067,8.067v24.901 c-6.575,5.013-10.8,12.732-10.8,21.38v0.191c0,4.659,1.227,9.049,3.386,12.893c-2.169,1.445-3.6,3.911-3.6,6.714v6.714 c0,0.222,0.006,0.441,0.016,0.66C0.006,443.282,0,443.501,0,443.723v7.546c0,0.225,0.006,0.443,0.016,0.663 C0.006,452.151,0,452.371,0,452.592v9.259c0,13.055,8.092,23.282,18.42,23.282h38.295c4.456,0,8.067-3.611,8.067-8.067 c0-4.456-3.611-8.067-8.067-8.067H18.61c-0.797-0.483-2.476-3.006-2.476-7.148l-0.001-9.203l0.018-0.407 c0.009-0.203,0.009-0.407,0.001-0.609l-0.018-7.855v-0.025h119.65l18.339,18.596c0.728,0.738,1.586,1.316,2.519,1.724 c0.038,0.016,0.074,0.038,0.112,0.054c0.034,0.014,0.071,0.024,0.105,0.038c0.948,0.381,1.966,0.587,3.007,0.587 c2.159,0,4.228-0.866,5.744-2.402l18.34-18.596h89.61h2.541l-0.003,7.518c-0.008,0.157-0.014,0.314-0.018,0.473 c-0.003,0.127-0.003,0.254,0,0.381c0.004,0.155,0.011,0.309,0.021,0.466v9.259c0,0.478-0.027,0.928-0.068,1.363 c-0.018,0.189-0.047,0.368-0.072,0.551c-0.031,0.23-0.062,0.459-0.103,0.675c-0.04,0.209-0.086,0.408-0.133,0.604 c-0.041,0.168-0.082,0.333-0.127,0.492c-0.058,0.202-0.12,0.398-0.186,0.586c-0.043,0.125-0.088,0.245-0.133,0.362 c-0.078,0.201-0.159,0.396-0.245,0.576c-0.031,0.067-0.062,0.129-0.095,0.191c-0.367,0.727-0.781,1.287-1.185,1.627 c-0.029,0.025-0.053,0.055-0.082,0.08c-0.014,0.01-0.032,0.029-0.046,0.038H81.454c-4.456,0-8.067,3.611-8.067,8.067 c0,4.456,3.611,8.067,8.067,8.067h192.359c2.722,0,5.282-0.727,7.587-2.012h206.356c4.273,0,7.804-3.332,8.053-7.597 l11.925-204.485c0.259-4.448-3.136-8.264-7.584-8.523c-4.441-0.254-8.264,3.135-8.523,7.584l-11.482,196.889H291.795 c0.004-0.027,0.005-0.055,0.011-0.082c0.116-0.686,0.203-1.388,0.271-2.096c0.014-0.139,0.037-0.274,0.048-0.413 c0.069-0.835,0.109-1.682,0.109-2.544v-9.259c0-0.206-0.006-0.413-0.017-0.657c0.011-0.22,0.017-0.44,0.017-0.666v-7.546 c0-0.205-0.006-0.411-0.017-0.658c0.011-0.22,0.017-0.441,0.017-0.664v-6.714c0-0.263-0.015-0.523-0.04-0.78 c-0.009-0.085-0.024-0.169-0.034-0.253c-0.021-0.17-0.045-0.339-0.077-0.504c-0.019-0.099-0.043-0.195-0.066-0.293 c-0.034-0.15-0.071-0.297-0.114-0.442c-0.029-0.1-0.062-0.199-0.095-0.298c-0.046-0.139-0.097-0.276-0.151-0.412 c-0.039-0.097-0.078-0.194-0.12-0.288c-0.06-0.134-0.124-0.266-0.191-0.396c-0.045-0.089-0.09-0.179-0.139-0.266 c-0.077-0.138-0.16-0.271-0.245-0.403c-0.046-0.073-0.09-0.148-0.14-0.219c-0.115-0.168-0.239-0.33-0.366-0.489 c-0.024-0.03-0.045-0.062-0.07-0.092c2.376-3.628,3.883-7.824,4.251-12.323c0.011-0.124,0.02-0.246,0.029-0.37 c0.04-0.588,0.067-1.18,0.067-1.778v-0.191c0-0.494-0.015-0.983-0.043-1.47c-0.009-0.148-0.025-0.296-0.036-0.444 c-0.025-0.339-0.051-0.678-0.088-1.012c-0.019-0.172-0.046-0.342-0.069-0.513c-0.041-0.309-0.083-0.616-0.133-0.922 c-0.03-0.181-0.067-0.36-0.101-0.541c-0.055-0.291-0.112-0.581-0.177-0.869c-0.042-0.187-0.089-0.373-0.135-0.559 c-0.069-0.275-0.14-0.549-0.216-0.821c-0.055-0.194-0.113-0.387-0.172-0.58c-0.078-0.255-0.161-0.509-0.247-0.761 c-0.07-0.205-0.142-0.409-0.217-0.612c-0.085-0.228-0.173-0.455-0.263-0.68c-0.089-0.22-0.179-0.441-0.272-0.659 c-0.084-0.194-0.172-0.384-0.26-0.574c-0.113-0.244-0.225-0.488-0.345-0.728c-0.071-0.141-0.146-0.28-0.219-0.421 c-0.147-0.283-0.295-0.566-0.452-0.843c-0.019-0.034-0.041-0.068-0.06-0.102c-1.297-2.265-2.924-4.341-4.828-6.168 c-0.027-0.026-0.053-0.052-0.08-0.077c-0.289-0.275-0.585-0.545-0.887-0.81c-0.052-0.045-0.104-0.09-0.157-0.136 c-0.166-0.143-0.326-0.29-0.495-0.429v-25.552c0-0.272-0.014-0.541-0.041-0.807c-0.009-0.09-0.027-0.177-0.039-0.268 c-0.023-0.173-0.045-0.346-0.079-0.516c-0.02-0.104-0.051-0.205-0.075-0.309c-0.037-0.151-0.071-0.302-0.115-0.45 c-0.032-0.107-0.073-0.209-0.11-0.314c-0.048-0.139-0.096-0.278-0.152-0.413c-0.043-0.105-0.094-0.208-0.142-0.311 c-0.059-0.128-0.118-0.257-0.184-0.382c-0.054-0.102-0.114-0.201-0.172-0.3c-0.07-0.119-0.14-0.24-0.215-0.355 c-0.063-0.097-0.132-0.19-0.2-0.284c-0.081-0.112-0.16-0.223-0.246-0.329c-0.072-0.09-0.15-0.177-0.226-0.266 c-0.09-0.103-0.181-0.204-0.275-0.303c-0.081-0.084-0.165-0.164-0.248-0.243c-0.099-0.094-0.199-0.186-0.302-0.274 c-0.088-0.076-0.18-0.148-0.271-0.22c-0.108-0.085-0.217-0.167-0.329-0.246c-0.095-0.067-0.191-0.131-0.288-0.194 c-0.116-0.074-0.233-0.145-0.353-0.214c-0.101-0.058-0.203-0.114-0.307-0.168c-0.123-0.063-0.248-0.124-0.375-0.181 c-0.106-0.048-0.213-0.095-0.322-0.139c-0.131-0.053-0.265-0.1-0.399-0.146c-0.11-0.038-0.218-0.074-0.33-0.107 c-0.139-0.041-0.28-0.075-0.423-0.109c-0.112-0.027-0.224-0.053-0.338-0.075c-0.145-0.028-0.294-0.047-0.442-0.068 c-0.115-0.015-0.229-0.032-0.345-0.042c-0.04-0.003-0.079-0.012-0.118-0.014l-0.559-9.585h8.003c4.456,0,8.067-3.611,8.067-8.067 c0-4.456-3.611-8.067-8.067-8.067h-8.945l-0.447-7.68c0.267-0.031,0.531-0.075,0.794-0.133 c11.145-2.439,17.754-23.076,14.43-45.063c-0.013-0.083-0.026-0.165-0.042-0.246c-0.156-0.853-0.328-1.699-0.515-2.542 c-0.104-0.474-0.225-0.943-0.339-1.414c-0.085-0.349-0.164-0.699-0.254-1.044c-0.172-0.664-0.36-1.321-0.551-1.977 c-0.04-0.136-0.075-0.273-0.116-0.408c-3.339-11.213-9.447-21.288-18.242-30.053l-2.305-39.531h47.142h11.059v15.315 c0,13.732,10.895,24.903,24.286,24.903h8.377h0.343h43.72h9.734c13.392,0,24.287-11.172,24.287-24.903V205.75h10.044h48.157 l-2.123,36.392c-0.259,4.448,3.135,8.264,7.584,8.523c4.423,0.26,8.264-3.136,8.523-7.584l2.621-44.928 C512.115,195.938,511.325,193.765,509.8,192.15z M27.148,377.673h241.496v10.872h-2.499h-47.037H100.625H28.804h-1.656V377.673z M28.804,427.289c-6.869,0-12.456-5.029-12.456-11.212v-0.191c0-6.18,5.588-11.209,12.456-11.209H97.25v0.001l22.298,22.611 H28.804z M159.865,445.195l-39.956-40.517h79.914L159.865,445.195z M275.39,408.402c0.001,0.001,0.003,0.003,0.004,0.004 c0.219,0.219,0.429,0.446,0.629,0.681c0.008,0.009,0.014,0.017,0.022,0.026c0.755,0.889,1.356,1.882,1.789,2.942 c0.039,0.095,0.08,0.188,0.115,0.284c0.07,0.186,0.129,0.375,0.188,0.565c0.045,0.148,0.089,0.297,0.128,0.447 c0.043,0.165,0.083,0.33,0.117,0.497c0.041,0.198,0.073,0.399,0.102,0.6c0.019,0.132,0.042,0.265,0.056,0.398 c0.035,0.343,0.059,0.691,0.059,1.042v0.191c0,0.349-0.024,0.693-0.058,1.034c-0.01,0.097-0.024,0.193-0.037,0.288 c-0.034,0.26-0.077,0.518-0.131,0.773c-0.017,0.084-0.033,0.168-0.053,0.252c-0.16,0.677-0.388,1.331-0.678,1.955 c-0.023,0.049-0.048,0.098-0.072,0.147c-0.133,0.275-0.277,0.546-0.435,0.81c-0.025,0.042-0.048,0.085-0.074,0.126 c-0.364,0.595-0.786,1.156-1.259,1.679c-0.059,0.065-0.12,0.127-0.181,0.19c-0.165,0.174-0.337,0.343-0.513,0.508 c-0.104,0.097-0.21,0.195-0.318,0.288c-0.124,0.108-0.253,0.209-0.381,0.312c-1.064,0.845-2.295,1.542-3.673,2.037 c-0.031,0.011-0.059,0.029-0.09,0.041c-1.398,0.49-2.913,0.77-4.502,0.77h-65.96l22.298-22.611h43.663v-0.001 c1.094,0,2.15,0.141,3.162,0.38c0.033,0.009,0.062,0.024,0.096,0.032C271.771,405.669,273.826,406.842,275.39,408.402z M274.218,283.364c0.161,0.708,0.309,1.42,0.442,2.137c2.089,14-1.105,23.462-2.945,26.58h-4.893H22.49 c-0.805,0.001-1.187-0.17-1.71-0.761c-3.787-4.288-4.089-18.19-3.104-26.396c8.761-45.614,75.2-61.811,129.514-61.811 C199.838,223.113,264.072,238.951,274.218,283.364z M307.307,189.578h-27.932V78.072h27.932V189.578z M351.372,67.681 c-0.222,0.737-0.343,1.515-0.343,2.324v159.833h-0.31c-4.495-0.001-8.153-3.934-8.153-8.77v-23.382 c0-4.456-3.611-8.067-8.067-8.067h-11.059V70.005V42.996h27.932V67.681z M395.093,229.838h-27.587V78.072h27.587V229.838z M439.157,70.005v119.613h-10.044c-4.456,0-8.067,3.611-8.067,8.067v23.382c0,4.836-3.657,8.769-8.153,8.769h-1.667V70.005 V42.996h27.931V70.005z M483.223,189.578h-27.932V78.072h27.932V189.578z"/> </g> </g> </g> </g>
</svg>