<!DOCTYPE svg PUBLIC "-//W3C//DTD SVG 1.1//EN" "http://www.w3.org/Graphics/SVG/1.1/DTD/svg11.dtd">
<!-- Uploaded to: SVG Repo, www.svgrepo.com, Transformed by: SVG Repo Mixer Tools -->
<svg width="64px" height="64px" viewBox="0 0 96 96" xmlns="http://www.w3.org/2000/svg" fill="#000000">
<g id="SVGRepo_bgCarrier" stroke-width="0"/>
<g id="SVGRepo_tracerCarrier" stroke-linecap="round" stroke-linejoin="round"/>
<g id="SVGRepo_iconCarrier">
<title>Persuaid Iconset</title> <desc>Iconset Persuaid</desc> <metadata>
<!-- Uploaded to: SVG Repo, www.svgrepo.com, Transformed by: SVG Repo Mixer Tools --> <x:xmpmeta xmlns:x="adobe:ns:meta/" x:xmptk="Adobe XMP Core 5.6-c143 79.161356, 2017/09/07-01:11:22 "> <rdf:rdf xmlns:rdf="http://www.w3.org/1999/02/22-rdf-syntax-ns#"> <rdf:description rdf:about="" xmlns:xmp="http://ns.adobe.com/xap/1.0/" xmlns:dc="http://purl.org/dc/elements/1.1/" xmlns:photoshop="http://ns.adobe.com/photoshop/1.0/" xmlns:xmprights="http://ns.adobe.com/xap/1.0/rights/" xmlns:xmpmm="http://ns.adobe.com/xap/1.0/mm/" xmlns:stevt="http://ns.adobe.com/xap/1.0/sType/ResourceEvent#"> <xmp:createdate>2015-11-30T17:16:01+01:00</xmp:createdate> <xmp:metadatadate>2018-08-22T17:18:29+02:00</xmp:metadatadate> <dc:title> <rdf:alt> <rdf:li xml:lang="x-default">Persuaid Iconset</rdf:li> </rdf:alt> </dc:title> <dc:rights> <rdf:alt> <rdf:li xml:lang="x-default">© Persuaid 2018. All rights reserved.</rdf:li> </rdf:alt> </dc:rights> <dc:creator> <rdf:seq> <rdf:li>Tobias Wibbeke</rdf:li> </rdf:seq> </dc:creator> <dc:description> <rdf:alt> <rdf:li xml:lang="x-default">Iconset Persuaid</rdf:li> </rdf:alt> </dc:description> <photoshop:colormode>3</photoshop:colormode> <photoshop:documentancestors> <rdf:bag> <rdf:li>0873518BF6912EFD4766990C4D25551B</rdf:li> <rdf:li>09F803ABF2B8168C111289953D19B0BD</rdf:li> <rdf:li>541B6538F0DE75543B8E50186559AAE9</rdf:li> <rdf:li>54A15BC4A85368316D15C9AB0DF33C7F</rdf:li> <rdf:li>83DDB2F89EAF8ACD03447E0EDEE1742F</rdf:li> <rdf:li>9100F0C02D3A9856BD3A23CDBF4F2B7E</rdf:li> <rdf:li>F34013D5C71AFDB68A7DAAC6B8DDC337</rdf:li> <rdf:li>xmp.did:09d7ff2f-0dfd-4de8-97a6-cda3fb2cf8dd</rdf:li> <rdf:li>xmp.did:b67f30a8-6cc7-4bbf-a790-fe0dd782df27</rdf:li> </rdf:bag> </photoshop:documentancestors> <photoshop:authorsposition>Persuaid | Tobias Wibbeke</photoshop:authorsposition> <photoshop:captionwriter>Tobias Wibbeke</photoshop:captionwriter> <xmprights:marked>True</xmprights:marked> <xmprights:webstatement>www.persuaid.de</xmprights:webstatement> <xmpmm:instanceid>xmp.iid:a98fa4e8-0111-448b-b232-fcc2390609a5</xmpmm:instanceid> <xmpmm:documentid>xmp.did:a98fa4e8-0111-448b-b232-fcc2390609a5</xmpmm:documentid> <xmpmm:originaldocumentid>xmp.did:a98fa4e8-0111-448b-b232-fcc2390609a5</xmpmm:originaldocumentid> <xmpmm:history> <rdf:seq> <rdf:li> <rdf:description> <stevt:action>saved</stevt:action> <stevt:instanceid>xmp.iid:a98fa4e8-0111-448b-b232-fcc2390609a5</stevt:instanceid> <stevt:when>2018-08-22T17:18:29+02:00</stevt:when> <stevt:softwareagent>Adobe Bridge CC 2018 (Macintosh)</stevt:softwareagent> <stevt:changed>/metadata</stevt:changed> </rdf:description> </rdf:li> </rdf:seq> </xmpmm:history> </rdf:description> </rdf:rdf> </x:xmpmeta> <!-- Uploaded to: SVG Repo, www.svgrepo.com, Transformed by: SVG Repo Mixer Tools -->
</metadata> <path fill="none" d="M0 0h96v96H0z"/>
<path d="M83 34.4c.2-.8-.1-1.6-.7-2-.6-.5-1.5-.5-2.2-.2l-1.7.9 3.5-9.4c.1-.2.1-.5 0-.8-.1-.2-.3-.4-.6-.5l-5.6-2.1 3.2-8.4c.1-.2.1-.5 0-.8s-.3-.4-.6-.5l-6.6-2.5c-.5-.2-1.1.1-1.3.6L65 23.2l-2.3-11.3c-.1-.5-.6-.9-1.2-.8l-6.2 1.2.9-10.6c0-.6-.4-1-.9-1.1l-7-.6c-.3 0-.5.1-.7.2-.2.2-.3.4-.4.7l-2.1 24.7-5.1-2.3c-.2-.1-.5-.1-.8 0-.2.1-.4.3-.6.5l-5.4 12.4 3.7-30.5c.1-.5-.3-1-.9-1.1l-6.9-.9c-.3 0-.5 0-.7.2-.2.2-.3.4-.4.7l-3.2 25.8-1.6-7.8c-.1-.3-.2-.5-.4-.6-.2-.1-.5-.2-.8-.1l-6.9 1.4c-.5.1-.9.6-.8 1.2l1.6 7.8.1-.1c-.7-.4-1.5-.3-2.2.2-.6.5-.9 1.3-.7 2l6.8 30 6.5 30c.2.9 1 1.6 2 1.6h40c1 0 1.8-.7 2-1.6l6-30 6.6-30zM79.7 24l-4 10.6-6.7 3.5 6-15.9 4.7 1.8zM72 10.4l4.7 1.8-3.2 8.4-5.9 15.6-1.9-9.3L72 10.4zm-11 2.9l5.3 26.3-2.7 1.4h-2.1l-5.3-26.8 4.8-.9zM59.4 41h-6.5l2-22.7L59.4 41zM49.2 2.1l5 .4L50.9 41h-5l3.3-38.9zM43.9 41H41l3.5-8-.6 8zm-3.7-15.4l4.6 2-6 13.4h-5.3l6.7-15.4zM30 6l5 .6-4.1 33.8-4.4-2.4-.3-1.3L30 6zM16.7 25.1l4.9-1 2.6 12.6-5.7-3.1-1.8-8.5zM29.9 92l-.7-3h38l-.6 3H29.9zm37.8-5H28.8l-5.1-23.4-5.8-25.7 12.7 6.9c.3.2.6.2 1 .2h32.5c.3 0 .6-.1.9-.2l13.1-7-5.8 25.8L67.7 87z"/>
<path d="M48 53c-7.2 0-13 5.8-13 13s5.8 13 13 13 13-5.8 13-13-5.8-13-13-13zm0 24c-6.1 0-11-4.9-11-11s4.9-11 11-11 11 4.9 11 11-4.9 11-11 11z"/>
</g>
</svg>